<svg fill="none" xmlns="http://www.w3.org/2000/svg" viewBox="0 0 24 24"><path d="M2 6a4 4 0 014-4h12a4 4 0 014 4v12a4 4 0 01-4 4H6a4 4 0 01-4-4V6z" fill="#34E0A1"/><path d="M17.856 10.33L19 9.222h-2.538C15.192 8.45 13.66 8 12 8c-1.657 0-3.187.45-4.455 1.222H5l1.144 1.108c-.701.57-1.141 1.39-1.141 2.3 0 1.72 1.566 3.114 3.498 3.114a3.734 3.734 0 002.377-.83L11.998 16l1.122-1.085a3.728 3.728 0 002.376.829c1.932 0 3.5-1.394 3.5-3.113 0-.912-.439-1.732-1.14-2.301zM8.5 14.737c-1.307 0-2.367-.943-2.367-2.106 0-1.164 1.06-2.107 2.367-2.107s2.367.943 2.367 2.107c0 1.163-1.06 2.106-2.367 2.106zM12 12.57c0-1.386-1.133-2.576-2.628-3.084A7.524 7.524 0 0112 9.018c.931 0 1.82.167 2.628.468C13.133 9.995 12 11.184 12 12.57zm3.498 2.168c-1.308 0-2.368-.943-2.368-2.107 0-1.163 1.06-2.107 2.367-2.107 1.308 0 2.367.944 2.367 2.107 0 1.164-1.06 2.107-2.367 2.107zm0-3.212c-.686 0-1.241.494-1.241 1.104 0 .61.555 1.104 1.24 1.104.686 0 1.241-.494 1.241-1.104 0-.609-.555-1.104-1.24-1.104zm-5.756 1.105c0 .61-.555 1.104-1.24 1.104-.686 0-1.241-.494-1.241-1.104 0-.61.555-1.104 1.24-1.104.686-.001 1.241.494 1.241 1.104z" fill="#000"/></svg>