<svg fill="none" xmlns="http://www.w3.org/2000/svg" viewBox="0 0 24 24"><path d="M2 6a4 4 0 014-4h12a4 4 0 014 4v12a4 4 0 01-4 4H6a4 4 0 01-4-4V6z" fill="#E40878"/><path d="M13.082 10.889v4.508a6.6 6.6 0 00.028.579c.075.742.338 1.03 1.085 1.172.21.04.433.078.642.054.425-.049.529.121.5.502-.02.247-.116.293-.34.293-1.99-.006-3.978-.01-5.968.003-.306.002-.365-.118-.347-.37l.004-.098c.003-.186.006-.352.333-.328.272.02.555-.017.825-.068.713-.134 1.018-.444 1.048-1.15.035-.817.036-1.635.037-2.453v-.358c.002-.77 0-1.539 0-2.308-.002-1.582-.004-3.163.014-4.744.005-.452-.177-.481-.54-.43-1.567.22-2.662 1.298-3.007 2.978-.021.105-.038.211-.056.317-.015.1-.031.2-.051.298-.008.041-.008.089-.008.137 0 .156 0 .315-.292.268l-.048-.007c-.266-.04-.467-.072-.438-.486.08-1.146.098-2.296.117-3.445l.007-.433c.005-.26.09-.32.344-.32 3.361.007 6.723.006 10.085 0 .226 0 .321.042.325.291.024 1.323.05 2.647.118 3.968.019.367-.184.39-.401.415a2.268 2.268 0 00-.114.015c-.28.046-.27-.108-.26-.253a.584.584 0 000-.129c-.12-.707-.284-1.398-.662-2.027-.557-.93-1.411-1.417-2.49-1.59-.372-.06-.508.025-.502.423a192.9 192.9 0 01.012 3.486l-.002 1.29h.002z" fill="#fff"/><path d="M17.496 12.357c0 .106 0 .212-.002.318-.001.252-.003.504.005.755.007.191-.052.261-.253.259-.72-.01-1.44-.008-2.16 0-.193.002-.267-.06-.265-.255.006-.715.006-1.43-.002-2.146-.003-.21.069-.289.286-.286.705.01 1.41.01 2.116-.002.22-.004.286.075.278.284-.009.252-.007.504-.005.756l.002.317zm-8.32.318l.001-.318-.001-.317c-.002-.252-.004-.504.005-.756.008-.21-.059-.288-.28-.284-.704.012-1.41.012-2.115.002-.217-.003-.288.076-.286.286.009.715.008 1.43.002 2.146-.002.194.072.257.265.255.72-.008 1.44-.01 2.16 0 .201.002.26-.068.254-.259a18.979 18.979 0 01-.005-.755z" fill="#fff"/></svg>